<svg width="183" height="42" viewBox="0 0 183 42" fill="none" xmlns="http://www.w3.org/2000/svg">
<path d="M1.8936 20.8751C1.8936 31.9577 10.8779 40.9419 21.9605 40.9419C33.0431 40.9419 42.0274 31.9577 42.0274 20.8751C42.0274 9.79241 33.0431 0.808154 21.9605 0.808154C10.8779 0.808154 1.8936 9.79241 1.8936 20.8751Z" fill="black" stroke="white" stroke-width="1.33779"/>
<path d="M18.34 12.3398L20.8618 17.5775L23.3836 22.8151L25.0648 26.3068V33.2903L22.543 28.0527L20.0212 22.8151L17.4993 17.5775L14.9775 12.3398H18.34Z" fill="#D9D9D9"/>
<path d="M12.095 12.3398L14.5891 17.5775L17.0832 22.8151L20.4087 29.7985L18.7459 33.2903L16.2518 28.0527L13.7577 22.8151L11.2636 17.5775L8.76953 12.3398H12.095Z" fill="#D9D9D9"/>
<path d="M32.3057 12.3398L29.5899 17.5775L26.8741 22.8151L25.0636 26.3068V33.2903L27.7794 28.0527L30.4952 22.8151L33.211 17.5775L35.9268 12.3398H32.3057Z" fill="#D9D9D9"/>
<path d="M28.9434 12.3398H21.96L25.4517 19.3233L28.9434 12.3398Z" fill="#D9D9D9"/>
<path d="M62.445 28.875L57.8752 12.9041H61.5638L64.2074 24.0011H64.34L67.2566 12.9041H70.4149L73.3236 24.0245H73.464L76.1076 12.9041H79.7962L75.2264 28.875H71.9356L68.8942 18.4331H68.7694L65.7359 28.875H62.445ZM82.2623 28.875V12.9041H93.0239V15.6881H85.639V19.4936H92.4703V22.2776H85.639V26.091H93.0551V28.875H82.2623ZM96.3673 28.875V12.9041H102.762C103.937 12.9041 104.917 13.0783 105.702 13.4266C106.487 13.7749 107.077 14.2584 107.472 14.8771C107.867 15.4905 108.065 16.1976 108.065 16.9982C108.065 17.6221 107.94 18.1705 107.69 18.6436C107.441 19.1115 107.098 19.4962 106.661 19.7978C106.23 20.0941 105.736 20.3047 105.179 20.4294V20.5854C105.788 20.6114 106.357 20.783 106.887 21.1001C107.423 21.4172 107.857 21.8617 108.19 22.4336C108.522 23.0003 108.689 23.6761 108.689 24.4612C108.689 25.3086 108.478 26.065 108.057 26.7305C107.641 27.3907 107.025 27.9132 106.209 28.2979C105.393 28.6826 104.387 28.875 103.191 28.875H96.3673ZM99.744 26.1144H102.497C103.438 26.1144 104.124 25.935 104.556 25.5763C104.987 25.2124 105.203 24.7289 105.203 24.1258C105.203 23.6839 105.096 23.294 104.883 22.9561C104.67 22.6182 104.366 22.353 103.971 22.1607C103.581 21.9683 103.115 21.8721 102.575 21.8721H99.744V26.1144ZM99.744 19.5872H102.247C102.71 19.5872 103.121 19.5066 103.479 19.3455C103.843 19.1791 104.129 18.9452 104.337 18.6436C104.55 18.3421 104.657 17.9808 104.657 17.5597C104.657 16.9826 104.452 16.5173 104.041 16.1638C103.635 15.8103 103.058 15.6335 102.31 15.6335H99.744V19.5872ZM111.545 12.9041H115.709L120.107 23.6345H120.294L124.693 12.9041H128.857V28.875H125.582V18.4799H125.449L121.316 28.797H119.086L114.952 18.4409H114.82V28.875H111.545V12.9041ZM135.05 28.875H131.432L136.945 12.9041H141.297L146.802 28.875H143.184L139.184 16.5537H139.059L135.05 28.875ZM134.824 22.5974H143.371V25.2332H134.824V22.5974ZM149.384 28.875V12.9041H152.76V19.946H152.971L158.718 12.9041H162.765L156.839 20.0551L162.836 28.875H158.796L154.421 22.3088L152.76 24.3364V28.875H149.384ZM165.183 28.875V12.9041H175.944V15.6881H168.559V19.4936H175.391V22.2776H168.559V26.091H175.976V28.875H165.183Z" fill="#D9D9D9"/>
</svg>
