<svg width="252" height="57" viewBox="0 0 252 57" fill="none" xmlns="http://www.w3.org/2000/svg">
<path d="M33 1.08621C17.8598 1.08621 5.58621 13.3598 5.58621 28.5C5.58621 43.6402 17.8598 55.9138 33 55.9138C48.1402 55.9138 60.4138 43.6402 60.4138 28.5C60.4138 13.3598 48.1402 1.08621 33 1.08621Z" fill="black" stroke="white" stroke-width="1.82759"/>
<path d="M28.0535 16.8398L31.4985 23.9948L34.9435 31.1498L37.2402 35.9198V45.4598L33.7952 38.3048L30.3502 31.1498L26.9052 23.9948L23.4602 16.8398H28.0535Z" fill="white"/>
<path d="M19.5231 16.8398L22.9302 23.9948L26.3374 31.1498L30.8802 40.6898L28.6088 45.4598L25.2017 38.3048L21.7945 31.1498L18.3874 23.9948L14.9802 16.8398H19.5231Z" fill="white"/>
<path d="M47.1329 16.8398L43.4229 23.9948L39.7129 31.1498L37.2396 35.9198V45.4598L40.9496 38.3048L44.6596 31.1498L48.3696 23.9948L52.0796 16.8398H47.1329Z" fill="white"/>
<path d="M42.5398 16.8398H32.9998L37.7698 26.3798L42.5398 16.8398Z" fill="white"/>
<path d="M88.3075 39.5L82.0646 17.6818H87.1037L90.7152 32.8416H90.8963L94.8807 17.6818H99.1953L103.169 32.8736H103.361L106.972 17.6818H112.011L105.768 39.5H101.273L97.1179 25.2351H96.9474L92.8033 39.5H88.3075ZM115.38 39.5V17.6818H130.082V21.4851H119.993V26.6839H129.326V30.4872H119.993V35.6967H130.125V39.5H115.38ZM134.649 39.5V17.6818H143.385C144.99 17.6818 146.329 17.9197 147.402 18.3956C148.474 18.8714 149.28 19.532 149.82 20.3771C150.36 21.2152 150.63 22.1811 150.63 23.2749C150.63 24.1271 150.459 24.8764 150.118 25.5227C149.777 26.1619 149.309 26.6875 148.712 27.0994C148.122 27.5043 147.448 27.7919 146.688 27.9624V28.1754C147.519 28.2109 148.296 28.4453 149.021 28.8786C149.752 29.3118 150.345 29.919 150.8 30.7003C151.255 31.4744 151.482 32.3977 151.482 33.4702C151.482 34.6278 151.194 35.6612 150.619 36.5703C150.051 37.4723 149.209 38.1861 148.094 38.7116C146.979 39.2372 145.605 39.5 143.971 39.5H134.649ZM139.262 35.7287H143.023C144.309 35.7287 145.246 35.4837 145.836 34.9936C146.425 34.4964 146.72 33.8359 146.72 33.0121C146.72 32.4084 146.574 31.8757 146.283 31.4141C145.992 30.9524 145.576 30.5902 145.037 30.3274C144.504 30.0646 143.868 29.9332 143.13 29.9332H139.262V35.7287ZM139.262 26.8118H142.682C143.314 26.8118 143.875 26.7017 144.365 26.4815C144.862 26.2543 145.253 25.9347 145.537 25.5227C145.828 25.1108 145.974 24.6172 145.974 24.0419C145.974 23.2536 145.693 22.6179 145.132 22.1349C144.578 21.652 143.79 21.4105 142.767 21.4105H139.262V26.8118ZM155.383 17.6818H161.072L167.081 32.3409H167.337L173.345 17.6818H179.034V39.5H174.56V25.299H174.378L168.732 39.3935H165.685L160.039 25.2457H159.858V39.5H155.383V17.6818ZM187.495 39.5H182.552L190.084 17.6818H196.029L203.55 39.5H198.607L193.142 22.6676H192.971L187.495 39.5ZM187.186 30.924H198.862V34.5249H187.186V30.924ZM207.076 39.5V17.6818H211.689V27.3018H211.977L219.828 17.6818H225.357L217.261 27.451L225.453 39.5H219.935L213.958 30.5298L211.689 33.2997V39.5H207.076ZM228.66 39.5V17.6818H243.361V21.4851H233.273V26.6839H242.605V30.4872H233.273V35.6967H243.404V39.5H228.66Z" fill="white"/>
</svg>
