<svg width="25" height="24" viewBox="0 0 25 24" fill="none" xmlns="http://www.w3.org/2000/svg">
<path d="M14.0537 16.875H17.4287M17.4287 16.875H20.8037M17.4287 16.875V13.5M17.4287 16.875V20.25M6.55371 10.5H8.80371C9.40045 10.5 9.97274 10.2629 10.3947 9.84099C10.8166 9.41903 11.0537 8.84674 11.0537 8.25V6C11.0537 5.40326 10.8166 4.83097 10.3947 4.40901C9.97274 3.98705 9.40045 3.75 8.80371 3.75H6.55371C5.95697 3.75 5.38468 3.98705 4.96272 4.40901C4.54076 4.83097 4.30371 5.40326 4.30371 6V8.25C4.30371 8.84674 4.54076 9.41903 4.96272 9.84099C5.38468 10.2629 5.95697 10.5 6.55371 10.5ZM6.55371 20.25H8.80371C9.40045 20.25 9.97274 20.0129 10.3947 19.591C10.8166 19.169 11.0537 18.5967 11.0537 18V15.75C11.0537 15.1533 10.8166 14.581 10.3947 14.159C9.97274 13.7371 9.40045 13.5 8.80371 13.5H6.55371C5.95697 13.5 5.38468 13.7371 4.96272 14.159C4.54076 14.581 4.30371 15.1533 4.30371 15.75V18C4.30371 18.5967 4.54076 19.169 4.96272 19.591C5.38468 20.0129 5.95697 20.25 6.55371 20.25ZM16.3037 10.5H18.5537C19.1504 10.5 19.7227 10.2629 20.1447 9.84099C20.5666 9.41903 20.8037 8.84674 20.8037 8.25V6C20.8037 5.40326 20.5666 4.83097 20.1447 4.40901C19.7227 3.98705 19.1504 3.75 18.5537 3.75H16.3037C15.707 3.75 15.1347 3.98705 14.7127 4.40901C14.2908 4.83097 14.0537 5.40326 14.0537 6V8.25C14.0537 8.84674 14.2908 9.41903 14.7127 9.84099C15.1347 10.2629 15.707 10.5 16.3037 10.5Z" stroke="#02050A" stroke-width="1.5" stroke-linecap="round" stroke-linejoin="round"/>
</svg>
